<svg xmlns="http://www.w3.org/2000/svg" viewBox="0 0 900 560"><defs><linearGradient id="a" x1="0" y1="0" x2="1" y2="1"><stop stop-color="#073052"/><stop offset="1" stop-color="#0d6688"/></linearGradient></defs><rect width="900" height="560" fill="url(#a)"/><circle cx="205" cy="192" r="78" fill="#fff"/><circle cx="450" cy="170" r="78" fill="#fff"/><circle cx="695" cy="192" r="78" fill="#fff"/><g fill="#0b3b67"><circle cx="205" cy="172" r="28"/><circle cx="450" cy="150" r="28"/><circle cx="695" cy="172" r="28"/><path d="M150 245c14-55 96-55 110 0zM395 223c14-55 96-55 110 0zM640 245c14-55 96-55 110 0z"/></g><rect x="140" y="330" width="620" height="120" rx="20" fill="#fff" opacity=".95"/><path d="M190 400l95-42 88 35 102-62 105 46 125-70" fill="none" stroke="#58b81f" stroke-width="14" stroke-linecap="round" stroke-linejoin="round"/><g fill="#58b81f"><circle cx="190" cy="400" r="11"/><circle cx="285" cy="358" r="11"/><circle cx="373" cy="393" r="11"/><circle cx="475" cy="331" r="11"/><circle cx="580" cy="377" r="11"/><circle cx="705" cy="307" r="11"/></g></svg>
